<mxfile host="app.diagrams.net" modified="2024-06-24T01:19:46.497Z" agent="Mozilla/5.0 (Windows NT 10.0; Win64; x64) AppleWebKit/537.36 (KHTML, like Gecko) Chrome/126.0.0.0 Safari/537.36 Edg/126.0.0.0" etag="cfPBbmfV-o4u65z4lPmz" version="24.6.2" type="github">
  <diagram name="Page-1" id="e3a06f82-3646-2815-327d-82caf3d4e204">
    <mxGraphModel dx="2206" dy="1212" grid="1" gridSize="10" guides="1" tooltips="1" connect="1" arrows="1" fold="1" page="1" pageScale="1.5" pageWidth="1169" pageHeight="826" background="none" math="0" shadow="0">
      <root>
        <mxCell id="0" style=";html=1;" />
        <mxCell id="1" style=";html=1;" parent="0" />
        <mxCell id="jj-xf25gCcdPQQhytGwh-9" value="内网" style="swimlane;whiteSpace=wrap;html=1;strokeColor=#0F8B8D;fontColor=#143642;fillColor=#FAE5C7;" vertex="1" parent="1">
          <mxGeometry x="740" y="520" width="840" height="640" as="geometry" />
        </mxCell>
        <mxCell id="jj-xf25gCcdPQQhytGwh-10" value="" style="fontColor=#0066CC;verticalAlign=top;verticalLabelPosition=bottom;labelPosition=center;align=center;html=1;outlineConnect=0;fillColor=#CCCCCC;strokeColor=#6881B3;gradientColor=none;gradientDirection=north;strokeWidth=2;shape=mxgraph.networks.server;" vertex="1" parent="jj-xf25gCcdPQQhytGwh-9">
          <mxGeometry x="100" y="310" width="90" height="100" as="geometry" />
        </mxCell>
        <mxCell id="jj-xf25gCcdPQQhytGwh-11" value="CA适配器" style="text;html=1;align=center;verticalAlign=middle;whiteSpace=wrap;rounded=0;fontColor=#143642;" vertex="1" parent="jj-xf25gCcdPQQhytGwh-9">
          <mxGeometry x="115" y="420" width="60" height="30" as="geometry" />
        </mxCell>
      </root>
    </mxGraphModel>
  </diagram>
</mxfile>
